<svg xmlns="http://www.w3.org/2000/svg" width="1997.622" height="621.154" viewBox="0 0 1997.622 621.154">
  <g id="Laag_11" data-name="Laag 11" transform="translate(-213.045 -350.678)">
    <path id="Path_153" data-name="Path 153" d="M216.562,720.122S346.248,825.64,415.957,802.4,508.9,569.122,594.1,600.562,640.57,808.661,733.5,805.532s123.931-236.41,178.14-204.971,69.709,354.633,131.668,347.947,92.945-363.9,147.167-347.947,54.21,387.1,116.169,368.042,0-615.425,116.181-615.425,38.723,333.045,85.2,395,108.432,19.761,123.918-86.927,116.182-83.034,123.931,44.55,139.406,181.794,232.351,73.362S2197.779,582.507,2208,729.662" transform="translate(0 0)" fill="none" stroke="#fd98b6" stroke-linecap="round" stroke-miterlimit="10" stroke-width="5"/>
  </g>
</svg>
