<svg id="Laag_11" data-name="Laag 11" xmlns="http://www.w3.org/2000/svg" viewBox="0 0 169.89 89.06"><defs><style>.cls-1{fill:#353535;}.cls-2{fill:none;stroke:#6d7ef7;stroke-linecap:round;stroke-miterlimit:10;}</style></defs><path class="cls-1" d="M217.85,386c.51,5.62,7,7.51,9.5,11,9.29,12.59,52.55-6.74,84.07-23.09,19.54-10.13,35.29-20.77,44.65-22.18a1.23,1.23,0,0,1,.37,2.43c-9,1.35-26.47,10.43-45,20-27.95,14.5-54.83,30.63-75.15,29-3.92,0-8.49-3.4-11.27-4.92l-8-10.86" transform="translate(-214.6 -348.17)"/><path class="cls-1" d="M349.78,406.64c-2.66,0,.14-.65,1.78-.69,13.76-.4,23.74-7.35,28.12-16.32a22.91,22.91,0,0,0,2.14-7.25,23.92,23.92,0,0,0,.21-3.6,27.5,27.5,0,0,0-5.25-15.84c-5-6.81-12.41-10-20.34-8.83a1.23,1.23,0,1,1-.37-2.43c8.87-1.33,17.15,2.24,22.7,9.8,6.25,8.53,7.5,20.27,3.12,29.23-4.81,9.83-15.56,15.48-30.28,15.9Q350.71,406.64,349.78,406.64Z" transform="translate(-214.6 -348.17)"/><path class="cls-2" d="M216.56,383.91s10.86,8.84,16.7,6.89,7.78-19.54,14.92-16.9,3.89,17.42,11.68,17.16,10.37-19.8,14.91-17.16,5.84,29.7,11,29.14,7.78-30.48,12.33-29.14,4.54,32.41,9.73,30.82,0-51.54,9.72-51.54,3.25,27.89,7.14,33.08,9.08,1.65,10.38-7.28,9.73-7,10.38,3.73,11.67,15.22,19.46,6.14,17.55-16.47,18.4-4.14" transform="translate(-214.6 -348.17)"/><path class="cls-1" d="M217.85,435.49a5.42,5.42,0,0,1-1.82-4.14h1.19a4.53,4.53,0,0,0,1.46,3.37,4.92,4.92,0,0,0,3.52,1.4,6.29,6.29,0,0,0,3.84-1.19,3.52,3.52,0,0,0,1.58-2.89,2.9,2.9,0,0,0-1.4-2.45,7.32,7.32,0,0,0-3.69-1.19,8.22,8.22,0,0,1-4.54-1.61,4.17,4.17,0,0,1,0-6.74,6.47,6.47,0,0,1,4.18-1.4,7.12,7.12,0,0,1,4.5,1.46,4.37,4.37,0,0,1,1.85,3.52h-1.19a3.33,3.33,0,0,0-1.52-2.72,5.89,5.89,0,0,0-3.64-1.13,5.36,5.36,0,0,0-3.34,1.07,3.13,3.13,0,0,0-1.37,2.57,3,3,0,0,0,1.43,2.5,7.79,7.79,0,0,0,3.84,1.23,7.91,7.91,0,0,1,4.42,1.58,4.11,4.11,0,0,1,1.64,3.31,4.52,4.52,0,0,1-1.94,3.66,7.31,7.31,0,0,1-4.68,1.52A6,6,0,0,1,217.85,435.49Z" transform="translate(-214.6 -348.17)"/><path class="cls-1" d="M235.06,434.51a9.67,9.67,0,0,1-2.14-6.56,10.14,10.14,0,0,1,2.14-6.77,7.74,7.74,0,0,1,11.45,0,10.14,10.14,0,0,1,2.15,6.77,9.67,9.67,0,0,1-2.15,6.56,7.87,7.87,0,0,1-11.45,0Zm10.59-.81a8.59,8.59,0,0,0,1.81-5.75,9.13,9.13,0,0,0-1.81-5.93,6.39,6.39,0,0,0-9.72,0,9.07,9.07,0,0,0-1.82,5.93,8.55,8.55,0,0,0,1.82,5.75,6.51,6.51,0,0,0,9.72,0Z" transform="translate(-214.6 -348.17)"/><path class="cls-1" d="M253.92,419.1h1.19v16.54h9.51v1.14h-10.7Z" transform="translate(-214.6 -348.17)"/><path class="cls-1" d="M270.24,434.51A9.67,9.67,0,0,1,268.1,428a10.14,10.14,0,0,1,2.14-6.77,7.74,7.74,0,0,1,11.45,0,10.14,10.14,0,0,1,2.15,6.77,9.67,9.67,0,0,1-2.15,6.56,7.87,7.87,0,0,1-11.45,0Zm10.59-.81a8.59,8.59,0,0,0,1.81-5.75,9.13,9.13,0,0,0-1.81-5.93,6.39,6.39,0,0,0-9.72,0,9.07,9.07,0,0,0-1.82,5.93,8.55,8.55,0,0,0,1.82,5.75,6.51,6.51,0,0,0,9.72,0Z" transform="translate(-214.6 -348.17)"/><path class="cls-1" d="M301,436.78V419.1h1.88l6.47,16.19,6.44-16.19h1.87v17.68h-1.19V420.47l-6.59,16.31h-1.1l-6.59-16.31v16.31Z" transform="translate(-214.6 -348.17)"/><path class="cls-1" d="M325.56,435.43a5.67,5.67,0,0,1-1.94-4.32v-12h1.19v12a4.64,4.64,0,0,0,1.61,3.55,5.5,5.5,0,0,0,3.85,1.46,5.24,5.24,0,0,0,3.7-1.46,4.77,4.77,0,0,0,1.52-3.55v-12h1.19v12a5.75,5.75,0,0,1-1.88,4.32,6.3,6.3,0,0,1-4.53,1.79A6.72,6.72,0,0,1,325.56,435.43Z" transform="translate(-214.6 -348.17)"/><path class="cls-1" d="M343.25,435.49a5.44,5.44,0,0,1-1.81-4.14h1.19a4.49,4.49,0,0,0,1.46,3.37,4.92,4.92,0,0,0,3.52,1.4,6.29,6.29,0,0,0,3.84-1.19A3.52,3.52,0,0,0,353,432a2.9,2.9,0,0,0-1.4-2.45,7.36,7.36,0,0,0-3.7-1.19,8.21,8.21,0,0,1-4.53-1.61,4.17,4.17,0,0,1,0-6.74,6.47,6.47,0,0,1,4.18-1.4,7.12,7.12,0,0,1,4.5,1.46,4.37,4.37,0,0,1,1.85,3.52h-1.2a3.31,3.31,0,0,0-1.52-2.72,5.84,5.84,0,0,0-3.63-1.13,5.34,5.34,0,0,0-3.34,1.07,3.13,3.13,0,0,0-1.37,2.57,3,3,0,0,0,1.43,2.5,7.79,7.79,0,0,0,3.84,1.23,7.91,7.91,0,0,1,4.42,1.58,4.11,4.11,0,0,1,1.64,3.31,4.52,4.52,0,0,1-1.94,3.66,7.31,7.31,0,0,1-4.68,1.52A6,6,0,0,1,343.25,435.49Z" transform="translate(-214.6 -348.17)"/><path class="cls-1" d="M359.28,436.78V419.1h1.19v17.68Z" transform="translate(-214.6 -348.17)"/><path class="cls-1" d="M368.06,434.51a9.61,9.61,0,0,1-2.39-6.56,9.72,9.72,0,0,1,2.39-6.59,7.3,7.3,0,0,1,5.72-2.71,7.38,7.38,0,0,1,4.68,1.49,6.11,6.11,0,0,1,2.36,3.94h-1.19a4.79,4.79,0,0,0-2-3.08,6.39,6.39,0,0,0-8.74,1.17,9.28,9.28,0,0,0,0,11.56,6.21,6.21,0,0,0,4.89,2.39,5.81,5.81,0,0,0,4-1.43,5.58,5.58,0,0,0,1.82-3.82h1.19a6.67,6.67,0,0,1-2.18,4.62,6.92,6.92,0,0,1-4.86,1.73A7.3,7.3,0,0,1,368.06,434.51Z" transform="translate(-214.6 -348.17)"/><path class="cls-1" d="M249.13,348.17c1.54.27,0,.62-1.61.67-13.76.39-23.73,7.34-28.12,16.32-4,8.15-3.62,19.53,2.9,26.69,5.36,5.88,12.41,10,20.34,8.82a1.25,1.25,0,0,1,1.4,1,1.24,1.24,0,0,1-1,1.4c-8.87,1.33-17.14-2.24-22.69-9.81-6.25-8.52-7.51-20.27-3.13-29.22,4.81-9.84,15.56-15.49,30.28-15.91Z" transform="translate(-214.6 -348.17)"/><path class="cls-1" d="M382.15,383.06l-.35-.47s.16-1.46.18-1.75a23.33,23.33,0,0,0,0-2.39l2,.53-.09,5.88-.2.57-1.49-.59Z" transform="translate(-214.6 -348.17)"/></svg>