<svg id="Laag_12" data-name="Laag 12" xmlns="http://www.w3.org/2000/svg" viewBox="0 0 169.89 89.06"><defs><style>.cls-1{fill:#fff;}.cls-2{fill:none;stroke:#6d7ef7;stroke-linecap:round;stroke-miterlimit:10;}</style></defs><path class="cls-1" d="M428.33,356.35c.51,5.62,7,7.51,9.5,11,9.29,12.59,52.55-6.75,84.07-23.09,19.54-10.13,35.3-20.77,44.66-22.18a1.23,1.23,0,0,1,.36,2.43c-9,1.35-26.47,10.43-45,20-28,14.49-54.84,30.63-75.15,29-3.92,0-8.5-3.4-11.27-4.92l-8-10.86" transform="translate(-425.08 -318.53)"/><path class="cls-1" d="M560.26,377c-2.65,0,.14-.64,1.78-.69,13.76-.39,23.74-7.34,28.13-16.31,4-8.16,2.82-18.89-2.9-26.69-5-6.81-12.42-10-20.35-8.83a1.25,1.25,0,0,1-1.4-1,1.23,1.23,0,0,1,1-1.4c8.87-1.34,17.14,2.23,22.69,9.8,6.25,8.53,7.51,20.27,3.13,29.23-4.81,9.83-15.57,15.48-30.29,15.9C561.49,377,560.88,377,560.26,377Z" transform="translate(-425.08 -318.53)"/><path class="cls-2" d="M593.83,355.08c-.86-12.33-10.63-4.94-18.41,4.14s-18.81,4.54-19.46-6.14-9.08-12.67-10.38-3.73-6.48,12.47-10.38,7.28,2.6-33.08-7.13-33.08-4.54,49.94-9.73,51.54-5.19-29.49-9.73-30.83-7.14,28.58-12.33,29.14-6.48-26.5-11-29.14-7.14,16.91-14.92,17.17-4.54-14.53-11.68-17.17-9.08,15-14.92,16.91-16.69-6.89-16.69-6.89" transform="translate(-425.08 -318.53)"/><path class="cls-1" d="M428.33,405.86a5.45,5.45,0,0,1-1.82-4.14h1.19a4.53,4.53,0,0,0,1.46,3.37,4.93,4.93,0,0,0,3.52,1.4,6.34,6.34,0,0,0,3.85-1.19,3.55,3.55,0,0,0,1.58-2.9,2.91,2.91,0,0,0-1.4-2.44,7.4,7.4,0,0,0-3.7-1.19,8.16,8.16,0,0,1-4.53-1.61,4.17,4.17,0,0,1,0-6.74,6.37,6.37,0,0,1,4.17-1.4,7.07,7.07,0,0,1,4.5,1.46A4.33,4.33,0,0,1,439,394h-1.19a3.33,3.33,0,0,0-1.52-2.72,5.89,5.89,0,0,0-3.64-1.13,5.38,5.38,0,0,0-3.34,1.07,3.14,3.14,0,0,0-1.37,2.57,3,3,0,0,0,1.43,2.5,7.76,7.76,0,0,0,3.85,1.22,8,8,0,0,1,4.41,1.58,4.14,4.14,0,0,1,1.64,3.31,4.54,4.54,0,0,1-1.94,3.67,7.36,7.36,0,0,1-4.68,1.52A6,6,0,0,1,428.33,405.86Z" transform="translate(-425.08 -318.53)"/><path class="cls-1" d="M445.55,404.88a9.62,9.62,0,0,1-2.15-6.56,10.09,10.09,0,0,1,2.15-6.77,7.73,7.73,0,0,1,11.44,0,10.14,10.14,0,0,1,2.15,6.77,9.67,9.67,0,0,1-2.15,6.56,7.86,7.86,0,0,1-11.44,0Zm10.58-.81a8.62,8.62,0,0,0,1.82-5.75,9.11,9.11,0,0,0-1.82-5.93,6.39,6.39,0,0,0-9.72,0,9.11,9.11,0,0,0-1.82,5.93,8.62,8.62,0,0,0,1.82,5.75,6.51,6.51,0,0,0,9.72,0Z" transform="translate(-425.08 -318.53)"/><path class="cls-1" d="M464.4,389.46h1.19V406h9.52v1.13H464.4Z" transform="translate(-425.08 -318.53)"/><path class="cls-1" d="M480.72,404.88a9.67,9.67,0,0,1-2.14-6.56,10.14,10.14,0,0,1,2.14-6.77,7.74,7.74,0,0,1,11.45,0,10.14,10.14,0,0,1,2.15,6.77,9.67,9.67,0,0,1-2.15,6.56,7.87,7.87,0,0,1-11.45,0Zm10.59-.81a8.62,8.62,0,0,0,1.82-5.75,9.11,9.11,0,0,0-1.82-5.93,6.39,6.39,0,0,0-9.72,0,9.11,9.11,0,0,0-1.82,5.93,8.62,8.62,0,0,0,1.82,5.75,6.51,6.51,0,0,0,9.72,0Z" transform="translate(-425.08 -318.53)"/><path class="cls-1" d="M511.52,407.14V389.46h1.88l6.47,16.19,6.44-16.19h1.88v17.68H527v-16.3l-6.58,16.3H519.3l-6.59-16.3v16.3Z" transform="translate(-425.08 -318.53)"/><path class="cls-1" d="M536,405.8a5.66,5.66,0,0,1-1.93-4.32v-12h1.19v12a4.61,4.61,0,0,0,1.61,3.55,5.46,5.46,0,0,0,3.84,1.46,5.22,5.22,0,0,0,3.7-1.46,4.77,4.77,0,0,0,1.52-3.55v-12h1.19v12a5.74,5.74,0,0,1-1.87,4.32,6.38,6.38,0,0,1-4.54,1.79A6.8,6.8,0,0,1,536,405.8Z" transform="translate(-425.08 -318.53)"/><path class="cls-1" d="M553.74,405.86a5.42,5.42,0,0,1-1.82-4.14h1.19a4.53,4.53,0,0,0,1.46,3.37,4.93,4.93,0,0,0,3.52,1.4,6.34,6.34,0,0,0,3.85-1.19,3.55,3.55,0,0,0,1.58-2.9,2.89,2.89,0,0,0-1.41-2.44,7.32,7.32,0,0,0-3.69-1.19,8.16,8.16,0,0,1-4.53-1.61,4.17,4.17,0,0,1,0-6.74,6.37,6.37,0,0,1,4.17-1.4,7.07,7.07,0,0,1,4.5,1.46,4.35,4.35,0,0,1,1.85,3.52h-1.19a3.33,3.33,0,0,0-1.52-2.72,5.89,5.89,0,0,0-3.64-1.13,5.36,5.36,0,0,0-3.34,1.07,3.14,3.14,0,0,0-1.37,2.57,3,3,0,0,0,1.43,2.5,7.73,7.73,0,0,0,3.85,1.22,8,8,0,0,1,4.41,1.58,4.14,4.14,0,0,1,1.64,3.31,4.54,4.54,0,0,1-1.94,3.67,7.36,7.36,0,0,1-4.68,1.52A6,6,0,0,1,553.74,405.86Z" transform="translate(-425.08 -318.53)"/><path class="cls-1" d="M569.76,407.14V389.46H571v17.68Z" transform="translate(-425.08 -318.53)"/><path class="cls-1" d="M578.54,404.88a9.6,9.6,0,0,1-2.38-6.56,9.71,9.71,0,0,1,2.38-6.59A7.69,7.69,0,0,1,589,390.51a6.14,6.14,0,0,1,2.35,3.93h-1.19a4.79,4.79,0,0,0-2-3.07,6.38,6.38,0,0,0-8.73,1.17,9.24,9.24,0,0,0,0,11.56,6.21,6.21,0,0,0,4.89,2.39,5.77,5.77,0,0,0,4-1.43,5.58,5.58,0,0,0,1.82-3.82h1.19a6.66,6.66,0,0,1-2.17,4.62,7,7,0,0,1-4.86,1.73A7.31,7.31,0,0,1,578.54,404.88Z" transform="translate(-425.08 -318.53)"/><path class="cls-1" d="M459.62,318.54c1.53.27,0,.62-1.62.67-13.76.39-23.73,7.34-28.12,16.31-4,8.16-3.62,19.54,2.9,26.7,5.37,5.88,12.42,10,20.35,8.82a1.24,1.24,0,0,1,1.39,1,1.21,1.21,0,0,1-1,1.39c-8.87,1.34-17.14-2.23-22.69-9.8-6.25-8.52-7.51-20.27-3.13-29.23,4.81-9.83,15.56-15.48,30.29-15.9C458.56,318.52,459,318.54,459.62,318.54Z" transform="translate(-425.08 -318.53)"/><path class="cls-1" d="M592.42,347.14s.49,5.35-.25,6.51l1.27,2.53s1,1.1,1.44-4.52Z" transform="translate(-425.08 -318.53)"/></svg>